<svg id="adn" xmlns="http://www.w3.org/2000/svg" viewBox="0 0 20.885 65.203">
  <path id="Path_70" data-name="Path 70" d="M10.453,244.82H25.861a1.91,1.91,0,0,0,0-3.82H10.453a1.91,1.91,0,1,0,0,3.82Zm0,0" transform="translate(-7.455 -210.309)" fill="#f5f6fa"/>
  <path id="Path_71" data-name="Path 71" d="M82,244.82h7.963a1.91,1.91,0,0,0,0-3.82H82Zm0,0" transform="translate(-71.557 -210.309)" fill="#c1d7f7"/>
  <path id="Path_72" data-name="Path 72" d="M10.453,312.82H25.861a1.91,1.91,0,0,0,0-3.82H10.453a1.91,1.91,0,1,0,0,3.82Zm0,0" transform="translate(-7.455 -269.649)" fill="#f5f6fa"/>
  <path id="Path_73" data-name="Path 73" d="M82,312.82h7.963a1.91,1.91,0,0,0,0-3.82H82Zm0,0" transform="translate(-71.557 -269.649)" fill="#c1d7f7"/>
  <path id="Path_74" data-name="Path 74" d="M10.453,430.82H25.861a1.91,1.91,0,0,0,0-3.82H10.453a1.91,1.91,0,1,0,0,3.82Zm0,0" transform="translate(-7.455 -372.622)" fill="#f5f6fa"/>
  <path id="Path_75" data-name="Path 75" d="M82,430.82h7.963a1.91,1.91,0,1,0,0-3.82H82Zm0,0" transform="translate(-71.557 -372.622)" fill="#c1d7f7"/>
  <path id="Path_76" data-name="Path 76" d="M10.453,176.82H25.861a1.91,1.91,0,0,0,0-3.82H10.453a1.91,1.91,0,1,0,0,3.82Zm0,0" transform="translate(-7.455 -150.968)" fill="#f5f6fa"/>
  <path id="Path_77" data-name="Path 77" d="M82,176.82h7.963a1.91,1.91,0,0,0,0-3.82H82Zm0,0" transform="translate(-71.557 -150.968)" fill="#c1d7f7"/>
  <path id="Path_78" data-name="Path 78" d="M10.453,58.82H25.861a1.91,1.91,0,0,0,0-3.82H10.453a1.91,1.91,0,0,0,0,3.82Zm0,0" transform="translate(-7.455 -47.996)" fill="#f5f6fa"/>
  <path id="Path_79" data-name="Path 79" d="M82,58.82h7.963a1.91,1.91,0,0,0,0-3.82H82Zm0,0" transform="translate(-71.557 -47.996)" fill="#c1d7f7"/>
  <path id="Path_80" data-name="Path 80" d="M10.443,14.742A6.63,6.63,0,0,1,3.82,8.119V1.91A1.91,1.91,0,0,0,0,1.91V8.119A10.455,10.455,0,0,0,10.443,18.563a6.63,6.63,0,0,1,6.622,6.623V40.017a6.63,6.63,0,0,1-6.622,6.624A10.455,10.455,0,0,0,0,57.084v6.209a1.91,1.91,0,1,0,3.82,0V57.084a6.63,6.63,0,0,1,6.622-6.623A10.455,10.455,0,0,0,20.885,40.017V25.186A10.455,10.455,0,0,0,10.443,14.742Zm0,0" fill="#00cbd4"/>
  <path id="Path_81" data-name="Path 81" d="M82,115.762v3.82a6.63,6.63,0,0,1,6.622,6.623v14.831A6.63,6.63,0,0,1,82,147.66v3.821a10.455,10.455,0,0,0,10.443-10.444V126.205A10.455,10.455,0,0,0,82,115.762Zm0,0" transform="translate(-71.557 -101.019)" fill="#00969c"/>
  <path id="Path_82" data-name="Path 82" d="M10.443,18.563A10.455,10.455,0,0,0,20.885,8.119V1.91a1.91,1.91,0,0,0-3.82,0V8.119a6.63,6.63,0,0,1-6.622,6.623A10.455,10.455,0,0,0,0,25.186V40.017A10.455,10.455,0,0,0,10.443,50.461a6.629,6.629,0,0,1,6.622,6.623v6.209a1.91,1.91,0,1,0,3.82,0V57.084A10.455,10.455,0,0,0,10.443,46.64,6.63,6.63,0,0,1,3.82,40.017V25.186A6.63,6.63,0,0,1,10.443,18.563Zm0,0" fill="#ff75b6"/>
  <path id="Path_83" data-name="Path 83" d="M82,366.238v3.82a6.63,6.63,0,0,1,6.622,6.623v6.209a1.91,1.91,0,0,0,3.82,0v-6.209A10.455,10.455,0,0,0,82,366.238Zm0,0" transform="translate(-71.557 -319.598)" fill="#ff3999"/>
  <path id="Path_84" data-name="Path 84" d="M90.532,0a1.91,1.91,0,0,0-1.91,1.91V8.119A6.63,6.63,0,0,1,82,14.742v3.82A10.455,10.455,0,0,0,92.443,8.119V1.91A1.91,1.91,0,0,0,90.532,0Zm0,0" transform="translate(-71.557)" fill="#ff3999"/>
  <path id="Path_85" data-name="Path 85" d="M17.06,315.656a6.629,6.629,0,0,1-6.618,6.442A10.455,10.455,0,0,0,0,332.542v6.209a1.91,1.91,0,1,0,3.82,0v-6.209a6.63,6.63,0,0,1,6.622-6.623,10.453,10.453,0,0,0,10.438-10.262Zm0,0" transform="translate(0 -275.457)" fill="#00969c"/>
  <path id="Path_86" data-name="Path 86" d="M10.443,366.238A10.455,10.455,0,0,0,0,376.682v6.209a1.91,1.91,0,1,0,3.82,0v-6.209a6.63,6.63,0,0,1,6.622-6.623Zm0,0" transform="translate(0 -319.598)" fill="#00cbd4"/>
</svg>
