<svg id="brain" xmlns="http://www.w3.org/2000/svg" viewBox="0 0 64.006 65.5">
  <g id="Group_42" data-name="Group 42" transform="translate(31.382 0)">
    <g id="Group_41" data-name="Group 41" transform="translate(0 0)">
      <path id="Path_87" data-name="Path 87" d="M245.633,0a6.2,6.2,0,0,1,6.2,6.2c0,.178-.009.355-.024.529a8.9,8.9,0,0,1,10.226,11.821A8.9,8.9,0,0,1,266.486,34.6a6.2,6.2,0,0,1-.823,11.993,9.274,9.274,0,0,1-12.274,13.246,7.044,7.044,0,0,1-13.952-1.388l-1.318-26.569L239.436,6.2a6.2,6.2,0,0,1,6.2-6.2Z" transform="translate(-238.118 0)" fill="#e6989e"/>
    </g>
  </g>
  <g id="Group_44" data-name="Group 44" transform="translate(1.494 0)">
    <g id="Group_43" data-name="Group 43" transform="translate(0 0)">
      <path id="Path_88" data-name="Path 88" d="M36.445,0a6.2,6.2,0,0,0-6.2,6.2c0,.178.009.355.024.529A8.9,8.9,0,0,0,20.046,18.554,8.9,8.9,0,0,0,15.592,34.6a6.2,6.2,0,0,0,.823,11.993A9.274,9.274,0,0,0,28.689,59.836a7.045,7.045,0,0,0,13.953-1.388V6.2a6.2,6.2,0,0,0-6.2-6.2Z" transform="translate(-11.336 0)" fill="#e6989e"/>
    </g>
  </g>
  <g id="Group_46" data-name="Group 46" transform="translate(23.778 0)">
    <g id="Group_45" data-name="Group 45">
      <path id="Path_89" data-name="Path 89" d="M183.248,0a6.178,6.178,0,0,0-1.977.324,6.2,6.2,0,0,1,4.22,5.879V58.448a7.053,7.053,0,0,1-5.069,6.769,7.044,7.044,0,0,0,9.022-6.769V6.2a6.2,6.2,0,0,0-6.2-6.2Z" transform="translate(-180.423)" fill="#e27f86"/>
    </g>
  </g>
  <g id="Group_48" data-name="Group 48" transform="translate(55.861 34.285)">
    <g id="Group_47" data-name="Group 47">
      <path id="Path_90" data-name="Path 90" d="M431.008,269.733a6.2,6.2,0,0,0-7.143-9.271" transform="translate(-423.865 -260.148)" fill="#e6989e"/>
    </g>
  </g>
  <g id="Group_50" data-name="Group 50" transform="translate(42.001 6.527)">
    <g id="Group_49" data-name="Group 49">
      <path id="Path_91" data-name="Path 91" d="M327.923,66.237a8.9,8.9,0,1,0-9.229-15.194" transform="translate(-318.694 -49.523)" fill="#e6989e"/>
    </g>
  </g>
  <g id="Group_52" data-name="Group 52" transform="translate(43.542 44.623)">
    <g id="Group_51" data-name="Group 51">
      <path id="Path_92" data-name="Path 92" d="M330.389,350.92A9.275,9.275,0,1,0,344,338.587" transform="translate(-330.389 -338.587)" fill="#e6989e"/>
    </g>
  </g>
  <g id="Group_54" data-name="Group 54" transform="translate(36.53 0)">
    <g id="Group_53" data-name="Group 53">
      <path id="Path_93" data-name="Path 93" d="M304.61,39.742A6.2,6.2,0,0,0,300.4,34.6a8.9,8.9,0,0,0-4.454-16.044A8.893,8.893,0,0,0,285.719,6.733c.015-.175.024-.351.024-.529A6.2,6.2,0,0,0,277.179.47a6.2,6.2,0,0,1,4.61,6v.005a.428.428,0,0,0,.5.426,8.887,8.887,0,0,1,10.271,8.791q0,.449-.044.886A2.609,2.609,0,0,0,294.2,19.3a8.9,8.9,0,0,1,2.244,15.557,6.207,6.207,0,0,1,1.914,10.749,4.1,4.1,0,0,0-1.43,4.2A9.294,9.294,0,0,1,290.5,60.945a9.282,9.282,0,0,0,9.071-14.354A6.2,6.2,0,0,0,304.61,39.742Z" transform="translate(-277.179 0)" fill="#e27f86"/>
    </g>
  </g>
  <g id="Group_56" data-name="Group 56" transform="translate(17.065 13.649)">
    <g id="Group_55" data-name="Group 55">
      <path id="Path_94" data-name="Path 94" d="M139.192,112.743a9.893,9.893,0,0,1-9.687-8,.988.988,0,0,1,1.941-.375,7.9,7.9,0,0,0,11.393,5.505.988.988,0,0,1,.91,1.755A9.885,9.885,0,0,1,139.192,112.743Z" transform="translate(-129.487 -103.565)" fill="#e27f86"/>
    </g>
  </g>
  <g id="Group_58" data-name="Group 58" transform="translate(0 0)">
    <g id="Group_57" data-name="Group 57">
      <path id="Path_95" data-name="Path 95" fill="none" stroke="#000" stroke-linecap="round" stroke-linejoin="round" stroke-miterlimit="10" stroke-width="15"/>
    </g>
  </g>
  <g id="Group_59" data-name="Group 59" transform="translate(10.777 14.602)">
    <path id="Path_96" data-name="Path 96" d="M321.52,316.693a.989.989,0,0,0-1.187-.738,7.2,7.2,0,0,0-4.036,2.58,7.14,7.14,0,0,0-4.466-.391.988.988,0,1,0,.449,1.925,5.21,5.21,0,0,1,6.261,3.887,5.252,5.252,0,0,1,.135,1.025.988.988,0,0,0,.987.958h.031a.988.988,0,0,0,.957-1.019,7.21,7.21,0,0,0-.185-1.413A7.123,7.123,0,0,0,318,319.57a5.227,5.227,0,0,1,2.779-1.689A.989.989,0,0,0,321.52,316.693Z" transform="translate(-280.847 -288.895)" fill="#e27f86"/>
    <path id="Path_97" data-name="Path 97" d="M87.725,163.259a.989.989,0,0,0,.086-1.914,7.954,7.954,0,0,1-4.235-3.1.988.988,0,0,0-1.63,1.118,9.939,9.939,0,0,0,5.292,3.874A.983.983,0,0,0,87.725,163.259Z" transform="translate(-81.771 -151.62)" fill="#e27f86"/>
    <path id="Path_98" data-name="Path 98" d="M112.718,276.3a9.9,9.9,0,0,0-5,7.7,9.95,9.95,0,0,0-5.124,4.877.988.988,0,1,0,1.786.848,7.958,7.958,0,0,1,3.374-3.553,9.86,9.86,0,0,0,2.917,5.819.988.988,0,1,0,1.379-1.417,7.876,7.876,0,0,1-2.395-5.838c0-.021,0-.042,0-.063a7.925,7.925,0,0,1,4.026-6.647.988.988,0,0,0-.968-1.724Z" transform="translate(-99.77 -254.375)" fill="#e27f86"/>
    <path id="Path_99" data-name="Path 99" d="M290.326,118.743c.009.018.018.037.028.055a7.925,7.925,0,0,1-.366,7.763.988.988,0,1,0,1.673,1.053,9.9,9.9,0,0,0,.718-9.148,9.949,9.949,0,0,0,2.176-6.731.988.988,0,0,0-1.974.106,7.957,7.957,0,0,1-1.27,4.732,9.859,9.859,0,0,0-5.34-3.722.988.988,0,1,0-.536,1.9A7.877,7.877,0,0,1,290.326,118.743Z" transform="translate(-257.969 -110.8)" fill="#e27f86"/>
    <path id="Path_100" data-name="Path 100" d="M293.685,410.015a8.288,8.288,0,0,1-3.641-3,.988.988,0,0,0-1.639,1.106,10.261,10.261,0,0,0,4.507,3.718.988.988,0,0,0,.772-1.82Z" transform="translate(-261.026 -367.596)" fill="#e27f86"/>
  </g>
</svg>
