<svg xmlns="http://www.w3.org/2000/svg" viewBox="0 0 66.039 65">
  <g id="capsules" transform="translate(0 -4.03)">
    <circle id="Ellipse_5" data-name="Ellipse 5" cx="12.12" cy="12.12" r="12.12" transform="translate(34.519 44.79)" fill="#f9f3f1"/>
    <path id="Path_112" data-name="Path 112" d="M309.2,356.137a12.119,12.119,0,0,1-17.139,0c-.17-.17-.335-.346-.492-.524a12.12,12.12,0,0,0,16.083-17.925,12.121,12.121,0,0,1,1.548,18.449Z" transform="translate(-253.995 -290.657)" fill="#efe2dd"/>
    <g id="Group_61" data-name="Group 61" transform="translate(30.868 4.029)">
      <path id="Path_113" data-name="Path 113" d="M240.579,8.924A9.186,9.186,0,0,1,252.994,5.1l16.794,8.879A9.186,9.186,0,1,1,261.2,30.218l-16.794-8.879a9.186,9.186,0,0,1-3.827-12.415Z" transform="translate(-239.512 -4.03)" fill="#fec165"/>
      <path id="Path_114" data-name="Path 114" d="M275.434,26.391c-.078.149-.161.3-.25.439A9.188,9.188,0,0,0,270.557,16.5L253.764,7.625A9.183,9.183,0,0,0,241.6,11.013,9.19,9.19,0,0,1,254.812,5.1l16.794,8.879A9.187,9.187,0,0,1,275.434,26.391Z" transform="translate(-241.33 -4.029)" fill="#fdb441"/>
      <path id="Path_115" data-name="Path 115" d="M342.643,63l8.588-16.242,8.4,4.44A9.186,9.186,0,1,1,351.04,67.44Z" transform="translate(-329.352 -41.251)" fill="#6bd9e7"/>
      <path id="Path_116" data-name="Path 116" d="M412.9,63.617c-.044.084-.09.166-.137.249-.036.064-.074.128-.113.19a9.188,9.188,0,0,0-4.626-10.326L399.4,49.171l1.273-2.408,8.4,4.439A9.187,9.187,0,0,1,412.9,63.617Z" transform="translate(-378.792 -41.256)" fill="#2ed1e2"/>
    </g>
    <g id="Group_62" data-name="Group 62" transform="translate(0 25.616)">
      <path id="Path_117" data-name="Path 117" d="M28.941,174.161a9.186,9.186,0,0,1,.113,12.991L15.738,200.7a9.186,9.186,0,1,1-13.1-12.878L15.95,174.273a9.186,9.186,0,0,1,12.991-.113Z" transform="translate(0 -171.526)" fill="#7acaa6"/>
      <path id="Path_118" data-name="Path 118" d="M18.956,209.411c-.12-.118-.237-.239-.349-.365a9.188,9.188,0,0,0,11.218-1.476l13.315-13.548a9.183,9.183,0,0,0,.236-12.626,9.19,9.19,0,0,1,1.886,14.354L31.947,209.3a9.188,9.188,0,0,1-12.991.113Z" transform="translate(-16.209 -180.123)" fill="#57be92"/>
      <path id="Path_119" data-name="Path 119" d="M9.292,245.407l13.1,12.878-6.658,6.774a9.186,9.186,0,0,1-13.1-12.878Z" transform="translate(0 -235.885)" fill="#ee6161"/>
      <path id="Path_120" data-name="Path 120" d="M18.956,339.314c-.068-.066-.133-.134-.2-.2-.051-.053-.1-.108-.15-.163a9.188,9.188,0,0,0,11.218-1.476l6.836-6.955,1.943,1.909L31.947,339.2A9.188,9.188,0,0,1,18.956,339.314Z" transform="translate(-16.209 -310.026)" fill="#e94444"/>
    </g>
    <g id="Group_63" data-name="Group 63" transform="translate(41.323 51.594)">
      <path id="Path_121" data-name="Path 121" d="M330.3,383.727a.963.963,0,0,1-.684-.283l-8.7-8.7a.967.967,0,0,1,1.367-1.367l8.7,8.7a.967.967,0,0,1-.683,1.65Z" transform="translate(-320.638 -373.096)" fill="#cdbfba"/>
    </g>
  </g>
</svg>
