<svg id="telephone_2_" data-name="telephone (2)" xmlns="http://www.w3.org/2000/svg" width="52.445" height="52.445" viewBox="0 0 52.445 52.445">
  <g id="Group_3" data-name="Group 3">
    <path id="Path_4" data-name="Path 4" d="M26.223,0A26.223,26.223,0,1,0,52.445,26.223,26.224,26.224,0,0,0,26.223,0ZM39.334,40.973A27.893,27.893,0,0,1,11.472,13.111a1.64,1.64,0,0,1,1.639-1.639h6.051A1.64,1.64,0,0,1,20.8,13.111a18.075,18.075,0,0,0,1.832,8.014,1.642,1.642,0,0,1-.76,2.2L19.428,24.5a23.031,23.031,0,0,0,8.512,8.512l1.18-2.442a1.642,1.642,0,0,1,2.2-.76,18.105,18.105,0,0,0,8.014,1.832,1.64,1.64,0,0,1,1.639,1.639v6.051h0A1.64,1.64,0,0,1,39.334,40.973Z" fill="#fff"/>
  </g>
</svg>
