<svg xmlns="http://www.w3.org/2000/svg" width="52" height="52" viewBox="0 0 52 52">
  <path id="guarantee" d="M49.183,21.878c-.609-.5-1.531-1.258-1.636-1.652a6.193,6.193,0,0,1,.6-2.363c.586-1.571,1.25-3.352.373-4.867-.887-1.534-2.778-1.848-4.446-2.126a6.319,6.319,0,0,1-2.3-.64,6.319,6.319,0,0,1-.64-2.3C40.853,6.259,40.538,4.369,39,3.481c-1.515-.877-3.3-.213-4.867.373a6.2,6.2,0,0,1-2.363.6c-.393-.105-1.151-1.026-1.652-1.636C29.037,1.5,27.806,0,26,0s-3.037,1.5-4.122,2.817c-.5.609-1.258,1.531-1.652,1.636a6.2,6.2,0,0,1-2.363-.6C16.292,3.269,14.511,2.6,13,3.481c-1.534.887-1.848,2.778-2.126,4.446a6.319,6.319,0,0,1-.64,2.3,6.319,6.319,0,0,1-2.3.64c-1.668.278-3.559.593-4.446,2.126-.877,1.515-.213,3.3.373,4.867a6.189,6.189,0,0,1,.6,2.363c-.105.393-1.026,1.151-1.636,1.652C1.5,22.963,0,24.194,0,26s1.5,3.037,2.817,4.122c.609.5,1.531,1.258,1.636,1.652a6.192,6.192,0,0,1-.6,2.363C3.269,35.708,2.6,37.489,3.481,39c.887,1.534,2.778,1.848,4.446,2.126a6.319,6.319,0,0,1,2.3.64,6.319,6.319,0,0,1,.64,2.3c.278,1.668.593,3.559,2.126,4.446,1.515.877,3.3.213,4.867-.373a6.2,6.2,0,0,1,2.363-.6c.393.105,1.151,1.026,1.652,1.636C22.963,50.5,24.194,52,26,52s3.037-1.5,4.122-2.817c.5-.609,1.258-1.531,1.652-1.636a6.206,6.206,0,0,1,2.363.6c1.571.585,3.352,1.25,4.867.373,1.534-.887,1.848-2.778,2.126-4.446a6.319,6.319,0,0,1,.64-2.3,6.319,6.319,0,0,1,2.3-.64c1.668-.278,3.559-.593,4.446-2.126.877-1.515.213-3.3-.373-4.867a6.189,6.189,0,0,1-.6-2.363c.105-.393,1.026-1.151,1.636-1.652C50.5,29.037,52,27.806,52,26S50.5,22.963,49.183,21.878ZM37.2,22.4l-9,12a4,4,0,0,1-2.916,1.59C25.189,36,25.094,36,25,36a3.972,3.972,0,0,1-2.828-1.172l-6-6a4,4,0,0,1,5.657-5.657l2.739,2.739L30.8,17.6a4,4,0,0,1,6.4,4.8Zm0,0" fill="#fff"/>
</svg>
