<svg id="telephone_2_" data-name="telephone (2)" xmlns="http://www.w3.org/2000/svg" width="21" height="21" viewBox="0 0 21 21">
  <g id="Group_3" data-name="Group 3">
    <path id="Path_4" data-name="Path 4" d="M10.5,0A10.5,10.5,0,1,0,21,10.5,10.5,10.5,0,0,0,10.5,0Zm5.25,16.406A11.169,11.169,0,0,1,4.594,5.25a.656.656,0,0,1,.656-.656H7.673a.656.656,0,0,1,.656.656,7.237,7.237,0,0,0,.734,3.209.657.657,0,0,1-.3.879l-.979.473a9.222,9.222,0,0,0,3.409,3.409l.472-.978a.657.657,0,0,1,.879-.3,7.25,7.25,0,0,0,3.209.734.656.656,0,0,1,.656.656V15.75h0A.656.656,0,0,1,15.75,16.406Z" fill="#40a2ea"/>
  </g>
</svg>
