<svg xmlns="http://www.w3.org/2000/svg" width="14.794" height="10.171" viewBox="0 0 14.794 10.171">
  <g id="email" transform="translate(0 -80)">
    <g id="Group_86" data-name="Group 86" transform="translate(0 80)">
      <g id="Group_85" data-name="Group 85">
        <path id="Path_138" data-name="Path 138" d="M13.869,80H.925A.925.925,0,0,0,0,80.925v.526l7.4,3.133,7.4-3.133v-.525A.925.925,0,0,0,13.869,80Z" transform="translate(0 -80)" fill="#555"/>
      </g>
    </g>
    <g id="Group_88" data-name="Group 88" transform="translate(0 82.455)">
      <g id="Group_87" data-name="Group 87">
        <path id="Path_139" data-name="Path 139" d="M7.577,168.016a.458.458,0,0,1-.361,0L0,164.96v6.791a.925.925,0,0,0,.925.925H13.869a.925.925,0,0,0,.925-.925V164.96Z" transform="translate(0 -164.96)" fill="#555"/>
      </g>
    </g>
  </g>
</svg>
