<svg xmlns="http://www.w3.org/2000/svg" width="16.875" height="24" viewBox="0 0 16.875 24">
  <g id="google-maps_2_" data-name="google-maps (2)" transform="translate(-76)">
    <g id="Google_Maps_2_" transform="translate(76.45 7.664)">
      <g id="Group_90" data-name="Group 90">
        <path id="Path_142" data-name="Path 142" d="M94.361,168.422,91.785,172.4l-2.458,1.052a16.557,16.557,0,0,1-3.727-6.117l1.472-2.737,2.367-1.1a4.657,4.657,0,0,0-.07.773,4.231,4.231,0,0,0,4.219,4.219A4.658,4.658,0,0,0,94.361,168.422Z" transform="translate(-85.6 -163.5)" fill="#ffda2d"/>
      </g>
    </g>
    <path id="Path_143" data-name="Path 143" d="M244.422,20.358a4.6,4.6,0,0,0,.07-.769,4.231,4.231,0,0,0-4.214-4.219h-.005a4.652,4.652,0,0,0-.773.07l3.741-3.741a8.417,8.417,0,0,1,4.922,4.922l-3.741,3.741S244.422,20.36,244.422,20.358Z" transform="translate(-155.836 -11.152)" fill="#80aef8"/>
    <path id="Path_144" data-name="Path 144" d="M263.918,16.622l-1.28,2.5-2.461,1.242s0,0,0,0a4.6,4.6,0,0,0,.07-.769,4.231,4.231,0,0,0-4.214-4.219h0v-.7l.842-1.874L259,11.7A8.417,8.417,0,0,1,263.918,16.622Z" transform="translate(-171.591 -11.152)" fill="#4086f4"/>
    <g id="Group_91" data-name="Group 91" transform="translate(80.176 5.47)">
      <path id="Path_145" data-name="Path 145" d="M177.248,116.7l-3.741,3.741a4.262,4.262,0,0,1-3.375,3.375h0l-4.072,4.072-.962.962c.239.267.45.506.675.759,1.547,1.758,2.883,3.37,2.883,4.917a.7.7,0,0,0,1.406,0c0-1.547,1.336-3.159,2.883-4.917,2.166-2.433,4.852-5.47,4.852-9.942A8.057,8.057,0,0,0,177.248,116.7Z" transform="translate(-165.098 -116.7)" fill="#59c36a"/>
      <path id="Path_146" data-name="Path 146" d="M263.919,116.7l-3.741,3.741h0a4.262,4.262,0,0,1-3.375,3.375h0l-.772.772v10.642a.7.7,0,0,0,.7-.7c0-1.547,1.336-3.159,2.883-4.917,2.166-2.433,4.852-5.47,4.852-9.942A8.057,8.057,0,0,0,263.919,116.7Z" transform="translate(-251.768 -116.7)" fill="#00a66c"/>
    </g>
    <g id="Google_Maps_3_" transform="translate(84.439 12.586)">
      <path id="Path_147" data-name="Path 147" d="M256.031,269.272l.772-.772a4.668,4.668,0,0,1-.772.07Z" transform="translate(-256.031 -268.5)" fill="#fdbf00"/>
    </g>
    <path id="Path_148" data-name="Path 148" d="M137.73.548l-3.741,3.741a4.268,4.268,0,0,0-2.208,1.167l-2.175-.909L128.8,2.475A8.359,8.359,0,0,1,134.763,0,8.057,8.057,0,0,1,137.73.548Z" transform="translate(-50.325 0)" fill="#4086f4"/>
    <path id="Path_149" data-name="Path 149" d="M256.031,3.517,259,.551A8.057,8.057,0,0,0,256.031,0V3.517Z" transform="translate(-171.592 -0.003)" fill="#4175df"/>
    <path id="Path_150" data-name="Path 150" d="M81.456,55.781a4.269,4.269,0,0,0-1.167,2.208L76.45,61.828A10.616,10.616,0,0,1,76,58.763,8.359,8.359,0,0,1,78.475,52.8Z" transform="translate(0 -50.325)" fill="#f03800"/>
  </g>
</svg>
