<svg id="surface1" xmlns="http://www.w3.org/2000/svg" width="81.582" height="81.503" viewBox="0 0 81.582 81.503">
  <path id="Path_8" data-name="Path 8" d="M80.461,40.076l-3.792,4.533,2.907,5.275a4.66,4.66,0,0,1-2.1,6.472L72.044,58.9l.509,5.976a4.72,4.72,0,0,1-3.8,5l-.107.022-.3.032L62,70.058l-1.968,5.667a4.664,4.664,0,0,1-6.215,2.768l-5.528-2.331-4.1,4.377A4.645,4.645,0,0,1,40.828,82a.289.289,0,0,1-.04,0,4.789,4.789,0,0,1-2.851-.944l-.092-.067-.227-.2-4.335-4.627-5.528,2.331a4.665,4.665,0,0,1-6.217-2.77l-1.966-5.665-6-.119A4.664,4.664,0,0,1,9.021,64.88L9.53,58.9,4.1,56.356a4.721,4.721,0,0,1-2.427-5.788l.035-.1.123-.279L4.9,44.609,1.112,40.076a4.719,4.719,0,0,1,.152-6.257l.078-.086.281-.244,4.842-3.768L4.721,23.964A4.666,4.666,0,0,1,7.39,18.291l.107-.046.287-.095,6.18-1.443.746-5.952a4.665,4.665,0,0,1,5.5-4l5.892,1.13,3.1-5.134a4.663,4.663,0,0,1,6.656-1.414l4.923,3.428.042-.029L45.9,1.2a2.879,2.879,0,0,1,.436-.248,4.712,4.712,0,0,1,6.03,1.8l3.1,5.134,5.891-1.13a4.663,4.663,0,0,1,5.505,4l.746,5.95L73.45,18.07a4.662,4.662,0,0,1,3.4,5.894l-1.746,5.759,4.643,3.613a4.665,4.665,0,0,1,.711,6.74Zm0,0" transform="translate(0 -0.501)" fill="#ffe477"/>
  <path id="Path_9" data-name="Path 9" d="M295.867,40.105l-3.792,4.533,2.907,5.275a4.66,4.66,0,0,1-2.1,6.472l-5.431,2.548.509,5.976a4.72,4.72,0,0,1-3.8,5l-.107.022-.3.032-6.344.128-1.968,5.667a4.664,4.664,0,0,1-6.215,2.768L263.7,76.191l-4.1,4.377a4.645,4.645,0,0,1-3.361,1.463V4.764l5.07-3.534a2.879,2.879,0,0,1,.436-.248,4.712,4.712,0,0,1,6.03,1.8l3.1,5.134,5.891-1.13a4.663,4.663,0,0,1,5.505,4l.746,5.95,5.841,1.365a4.662,4.662,0,0,1,3.4,5.894l-1.746,5.759,4.643,3.613a4.665,4.665,0,0,1,.711,6.74Zm0,0" transform="translate(-215.406 -0.529)" fill="#ffcd00"/>
  <path id="Path_10" data-name="Path 10" d="M168.916,149.069a20.341,20.341,0,0,1-20.244,20.316H148.6a20.316,20.316,0,1,1,0-40.631h.072A20.34,20.34,0,0,1,168.916,149.069Zm0,0" transform="translate(-107.844 -108.318)" fill="#fff"/>
  <path id="Path_11" data-name="Path 11" d="M276.478,149.069a20.341,20.341,0,0,1-20.244,20.316V128.754A20.34,20.34,0,0,1,276.478,149.069Zm0,0" transform="translate(-215.406 -108.318)" fill="#e1ebf0"/>
  <path id="Path_12" data-name="Path 12" d="M210.975,216.349l-9.149,9.151-1.977,1.977a2.4,2.4,0,0,1-3.383,0l-4.251-4.252a2.391,2.391,0,1,1,3.382-3.382l2.561,2.561,9.437-9.436a2.391,2.391,0,0,1,3.382,3.382Zm0,0" transform="translate(-160.998 -178.524)" fill="#b4d2d7"/>
  <path id="Path_13" data-name="Path 13" d="M265.383,216.349l-9.149,9.151v-6.765L262,212.967a2.391,2.391,0,1,1,3.382,3.382Zm0,0" transform="translate(-215.406 -178.524)" fill="#6fa5aa"/>
</svg>
