<svg xmlns="http://www.w3.org/2000/svg" width="26.466" height="21" viewBox="0 0 26.466 21">
  <g id="home-sign" transform="translate(0 -4.07)">
    <path id="Path_1" data-name="Path 1" d="M22.568,15.412v8.316a1.343,1.343,0,0,1-1.343,1.343H5.241A1.343,1.343,0,0,1,3.9,23.727V15.412a1.341,1.341,0,0,1,.631-1.139L12.52,9.282a1.343,1.343,0,0,1,1.423,0l7.991,4.991A1.339,1.339,0,0,1,22.568,15.412ZM25.835,11.7,13.945,4.274a1.343,1.343,0,0,0-1.423,0L.631,11.7a1.343,1.343,0,0,0,1.423,2.279L13.233,7l11.178,6.981A1.343,1.343,0,0,0,25.835,11.7Z" transform="translate(0 0)" fill="#40a2ea"/>
  </g>
</svg>
