<svg xmlns="http://www.w3.org/2000/svg" width="26.44" height="27.59" viewBox="0 0 26.44 27.59">
  <g id="google-maps" transform="translate(-10.667)">
    <path id="Path_61" data-name="Path 61" d="M257.979,134.879v14.37a2.782,2.782,0,0,1-.483,1.586,2.663,2.663,0,0,1-.356.448l-11.4-11.4-.4-.4,7.852-7.852.494.31,4.024,2.449A.583.583,0,0,1,257.979,134.879Z" transform="translate(-222.022 -124.533)" fill="#cfd8dc"/>
    <path id="Path_62" data-name="Path 62" d="M31.164,67.644,22.91,75.9l-11.4,11.4a2.657,2.657,0,0,1-.356-.448,2.782,2.782,0,0,1-.483-1.586V66.874A2.874,2.874,0,0,1,13.541,64h11.5a.682.682,0,0,1,.3.08l5.334,3.253Z" transform="translate(0 -60.551)" fill="#4caf50"/>
    <path id="Path_63" data-name="Path 63" d="M49.853,289.139a2.642,2.642,0,0,1-.448.356,2.781,2.781,0,0,1-1.586.483H28.276a2.781,2.781,0,0,1-1.586-.483,2.645,2.645,0,0,1-.448-.356l11.4-11.4.4-.4.4.4Z" transform="translate(-14.735 -262.389)" fill="#2196f3"/>
    <path id="Path_64" data-name="Path 64" d="M247.578,278.772a2.522,2.522,0,0,1-.8.8l-11.76-11.76a.569.569,0,0,1,.8-.8Z" transform="translate(-212.103 -252.469)" fill="#fafafa"/>
    <path id="Path_65" data-name="Path 65" d="M40.136,126.488l-7.944,7.944-11.76,11.76a2.522,2.522,0,0,1-.8-.8l19.52-19.52Z" transform="translate(-8.478 -119.085)" fill="#ffc107"/>
    <g id="Group_35" data-name="Group 35" transform="translate(12.966 5.748)">
      <path id="Path_66" data-name="Path 66" d="M66.3,111.264a2.3,2.3,0,1,1,2.3-2.3A2.3,2.3,0,0,1,66.3,111.264Zm0-3.449a1.15,1.15,0,1,0,1.15,1.15A1.15,1.15,0,0,0,66.3,107.816Z" transform="translate(-63.426 -106.666)" fill="#fafafa"/>
      <path id="Path_67" data-name="Path 67" d="M98.875,107.816h-2.3a.575.575,0,0,1,0-1.15h2.3a.575.575,0,1,1,0,1.15Z" transform="translate(-93.702 -106.666)" fill="#fafafa"/>
      <path id="Path_68" data-name="Path 68" d="M56.208,176.415a2.588,2.588,0,0,1-2.871-2.27l0-.029c0-1.075,1.021-1.8,3.037-2.163a1.618,1.618,0,0,1-.163-.71.575.575,0,0,1,1.15,0c0,.261.238.508.629.886a2.759,2.759,0,0,1,1.1,1.988C59.082,176.137,57.7,176.415,56.208,176.415Zm1.012-3.428c-2.014.254-2.736.762-2.736,1.129,0,.23.307,1.15,1.724,1.15,1.647,0,1.724-.394,1.724-1.15C57.932,173.713,57.664,173.418,57.22,172.987Z" transform="translate(-53.334 -167.218)" fill="#fafafa"/>
    </g>
    <path id="Path_69" data-name="Path 69" d="M272.991,0a6.331,6.331,0,0,0-6.323,6.323,5.588,5.588,0,0,0,.1,1.035,6.166,6.166,0,0,0,.974,2.49c.267.46.575.938.9,1.448a23.5,23.5,0,0,1,3.783,8.937.575.575,0,0,0,1.127,0,23.5,23.5,0,0,1,3.782-8.938c.328-.509.633-.984.877-1.411a6.232,6.232,0,0,0,1-2.516,5.666,5.666,0,0,0,.1-1.045A6.331,6.331,0,0,0,272.991,0Z" transform="translate(-242.206)" fill="#f44336"/>
    <circle id="Ellipse_4" data-name="Ellipse 4" cx="2.874" cy="2.874" r="2.874" transform="translate(27.91 3.449)" fill="#c62828"/>
  </g>
</svg>
