<svg xmlns="http://www.w3.org/2000/svg" width="15.062" height="15.094" viewBox="0 0 15.062 15.094">
  <g id="phone-call" transform="translate(-0.539)">
    <g id="Group_84" data-name="Group 84" transform="translate(0.539 0)">
      <path id="Path_137" data-name="Path 137" d="M15.207,11.078,13.1,8.971a1.4,1.4,0,0,0-2.332.527,1.434,1.434,0,0,1-1.655.9A6.5,6.5,0,0,1,5.2,6.489a1.363,1.363,0,0,1,.9-1.655A1.4,1.4,0,0,0,6.63,2.5L4.524.395a1.5,1.5,0,0,0-2.031,0L1.063,1.824c-1.429,1.5.15,5.492,3.686,9.028s7.523,5.191,9.028,3.686l1.429-1.429A1.5,1.5,0,0,0,15.207,11.078Z" transform="translate(-0.539 0)" fill="#555"/>
    </g>
  </g>
</svg>
