<svg xmlns="http://www.w3.org/2000/svg" width="14.794" height="21.514" viewBox="0 0 14.794 21.514">
  <g id="pin" transform="translate(-79.968 0)">
    <path id="Path_140" data-name="Path 140" d="M93.734,3.684A7.3,7.3,0,0,0,87.53,0c-.11,0-.221,0-.331,0A7.3,7.3,0,0,0,81,3.684a7.49,7.49,0,0,0-.1,7.4l5.335,9.765.007.013a1.3,1.3,0,0,0,2.25,0l.007-.013,5.335-9.765a7.49,7.49,0,0,0-.1-7.4ZM87.364,9.748A3.025,3.025,0,1,1,90.39,6.723,3.029,3.029,0,0,1,87.364,9.748Z" transform="translate(0 0)" fill="#555"/>
  </g>
</svg>
