<svg xmlns="http://www.w3.org/2000/svg" width="21" height="21" viewBox="0 0 21 21">
  <path id="guarantee" d="M19.862,8.835c-.246-.2-.618-.508-.661-.667a2.5,2.5,0,0,1,.242-.954,2.315,2.315,0,0,0,.151-1.966,2.334,2.334,0,0,0-1.8-.859,2.552,2.552,0,0,1-.93-.258,2.552,2.552,0,0,1-.258-.93,2.334,2.334,0,0,0-.859-1.8,2.316,2.316,0,0,0-1.966.151,2.5,2.5,0,0,1-.954.242c-.159-.042-.465-.414-.667-.661C11.726.6,11.229,0,10.5,0S9.274.6,8.835,1.138c-.2.246-.508.618-.667.661a2.5,2.5,0,0,1-.954-.242,2.315,2.315,0,0,0-1.966-.151A2.334,2.334,0,0,0,4.39,3.2a2.552,2.552,0,0,1-.258.93,2.552,2.552,0,0,1-.93.258,2.334,2.334,0,0,0-1.8.859,2.315,2.315,0,0,0,.151,1.966,2.5,2.5,0,0,1,.242.954c-.042.159-.414.465-.661.667C.6,9.274,0,9.771,0,10.5s.6,1.226,1.138,1.665c.246.2.618.508.661.667a2.5,2.5,0,0,1-.242.954,2.315,2.315,0,0,0-.151,1.966,2.334,2.334,0,0,0,1.8.859,2.552,2.552,0,0,1,.93.258,2.552,2.552,0,0,1,.258.93,2.334,2.334,0,0,0,.859,1.8,2.316,2.316,0,0,0,1.966-.151,2.5,2.5,0,0,1,.954-.242c.159.042.465.414.667.661C9.274,20.4,9.771,21,10.5,21s1.226-.6,1.665-1.138c.2-.246.508-.618.667-.661a2.506,2.506,0,0,1,.954.242,2.316,2.316,0,0,0,1.966.151,2.334,2.334,0,0,0,.859-1.8,2.552,2.552,0,0,1,.258-.93,2.552,2.552,0,0,1,.93-.258,2.334,2.334,0,0,0,1.8-.859,2.315,2.315,0,0,0-.151-1.966,2.5,2.5,0,0,1-.242-.954c.042-.159.414-.465.661-.667C20.4,11.726,21,11.229,21,10.5S20.4,9.274,19.862,8.835Zm-4.839.211-3.635,4.846a1.614,1.614,0,0,1-1.178.642c-.038,0-.076,0-.115,0a1.6,1.6,0,0,1-1.142-.473L6.531,11.642A1.615,1.615,0,0,1,8.815,9.358l1.106,1.106,2.517-3.356a1.615,1.615,0,0,1,2.585,1.938Zm0,0" fill="#40a2ea"/>
</svg>
