<svg xmlns="http://www.w3.org/2000/svg" width="49" height="49" viewBox="0 0 49 49">
  <g id="positive-review" transform="translate(0)">
    <path id="Path_122" data-name="Path 122" d="M256,7.5V55.064A23.782,23.782,0,0,0,256,7.5Z" transform="translate(-231.5 -6.782)" fill="#ffe7b5"/>
    <path id="Path_123" data-name="Path 123" d="M52.193,31.282C52.193,18.148,42.831,7.5,31.282,7.5a23.781,23.781,0,0,0-16.94,40.472,7.682,7.682,0,0,1-3.971,3.664,7.661,7.661,0,0,0,7.3-.853,23.671,23.671,0,0,0,13.614,4.281C42.831,55.064,52.193,44.417,52.193,31.282Z" transform="translate(-6.782 -6.782)" fill="#fff7e6"/>
    <path id="Path_124" data-name="Path 124" d="M98.178,197.082l-3.954-.6-1.788-3.576L91,199.888l1.436,2.1,3.549,1.842-.655-3.945Z" transform="translate(-82.291 -174.448)" fill="#ff974f"/>
    <path id="Path_125" data-name="Path 125" d="M49.954,196.486l-3.954.6,2.849,2.806-.655,3.945,3.549-1.842v-9.08Z" transform="translate(-41.598 -174.448)" fill="#ffb35c"/>
    <path id="Path_126" data-name="Path 126" d="M398.178,197.082l-3.954-.6-1.788-3.576L391,199.888l1.436,2.1,3.549,1.842-.655-3.945Z" transform="translate(-353.58 -174.448)" fill="#ff974f"/>
    <path id="Path_127" data-name="Path 127" d="M349.954,196.486l-3.954.6,2.849,2.806-.655,3.945,3.549-1.842v-9.08Z" transform="translate(-312.887 -174.448)" fill="#ffb35c"/>
    <path id="Path_128" data-name="Path 128" d="M248.178,197.082l-3.954-.6-1.788-3.576L241,199.888l1.436,2.1,3.549,1.842-.655-3.945Z" transform="translate(-217.936 -174.448)" fill="#ff974f"/>
    <path id="Path_129" data-name="Path 129" d="M199.954,196.486l-3.954.6,2.849,2.806-.655,3.945,3.549-1.842v-9.08Z" transform="translate(-177.242 -174.448)" fill="#ffb35c"/>
    <path id="Path_130" data-name="Path 130" d="M41.824,7.176A24.5,24.5,0,0,0,8.254,6.163a.718.718,0,1,0,.952,1.074A23.063,23.063,0,1,1,11.3,43.413a.718.718,0,0,0-.827,0A6.889,6.889,0,0,1,6.46,44.693a6.993,6.993,0,0,1-.957-.065,8.394,8.394,0,0,0,2.7-3.116.718.718,0,0,0-.13-.826,23.059,23.059,0,0,1-.834-31.48.718.718,0,0,0-1.074-.952,24.495,24.495,0,0,0,.513,33.054A6.944,6.944,0,0,1,3.32,44.189a.718.718,0,0,0,0,1.331,8.382,8.382,0,0,0,7.561-.653A24.5,24.5,0,0,0,41.824,7.176Z"/>
    <path id="Path_131" data-name="Path 131" d="M51.384,190.078a.718.718,0,0,0-.576-.488l-3.586-.54L45.6,185.807a.718.718,0,0,0-1.284,0L42.7,189.05l-3.586.54a.718.718,0,0,0-.4,1.221l2.583,2.544-.594,3.577a.718.718,0,0,0,1.039.755l3.218-1.671,3.218,1.671a.718.718,0,0,0,1.039-.755l-.594-3.577,2.583-2.544A.718.718,0,0,0,51.384,190.078Zm-4.035,2.516a.718.718,0,0,0-.2.629l.42,2.528-2.275-1.181a.718.718,0,0,0-.661,0l-2.275,1.181.42-2.528a.718.718,0,0,0-.2-.629l-1.826-1.8,2.534-.382a.718.718,0,0,0,.535-.389l1.146-2.292,1.146,2.292a.718.718,0,0,0,.535.389l2.534.382Z" transform="translate(-34.815 -167.666)"/>
    <path id="Path_132" data-name="Path 132" d="M351.384,190.078a.718.718,0,0,0-.576-.488l-3.586-.54-1.622-3.243a.718.718,0,0,0-1.284,0L342.7,189.05l-3.586.54a.718.718,0,0,0-.4,1.221l2.583,2.544-.594,3.577a.718.718,0,0,0,1.039.755l3.218-1.671,3.218,1.671a.718.718,0,0,0,1.039-.755l-.594-3.577,2.583-2.544A.718.718,0,0,0,351.384,190.078Zm-4.035,2.516a.718.718,0,0,0-.2.629l.42,2.528-2.275-1.181a.718.718,0,0,0-.661,0l-2.275,1.181.42-2.528a.718.718,0,0,0-.2-.629l-1.826-1.8,2.534-.382a.718.718,0,0,0,.535-.389l1.146-2.292,1.146,2.292a.718.718,0,0,0,.535.389l2.534.382Z" transform="translate(-306.104 -167.666)"/>
    <path id="Path_133" data-name="Path 133" d="M201.384,190.078a.718.718,0,0,0-.576-.488l-3.586-.54-1.622-3.243a.718.718,0,0,0-1.284,0L192.7,189.05l-3.586.54a.718.718,0,0,0-.4,1.221l2.583,2.544-.594,3.577a.718.718,0,0,0,1.039.755l3.218-1.671,3.218,1.671a.718.718,0,0,0,1.039-.755l-.594-3.577,2.583-2.544A.718.718,0,0,0,201.384,190.078Zm-4.035,2.516a.718.718,0,0,0-.2.629l.42,2.528-2.275-1.181a.718.718,0,0,0-.661,0l-2.275,1.181.42-2.528a.718.718,0,0,0-.2-.629l-1.826-1.8,2.534-.382a.718.718,0,0,0,.535-.389l1.146-2.292,1.146,2.292a.718.718,0,0,0,.535.389l2.534.382Z" transform="translate(-170.46 -167.666)"/>
  </g>
</svg>
