<svg xmlns="http://www.w3.org/2000/svg" width="17.259" height="14.043" viewBox="0 0 17.259 14.043">
  <g id="menu_1_" data-name="menu (1)" transform="translate(0 5.207)">
    <path id="Path_134" data-name="Path 134" d="M16.753,229.359H.505c-.279,0-.505.389-.505.868s.226.868.505.868H16.753c.279,0,.505-.388.505-.868S17.032,229.359,16.753,229.359Zm0,0" transform="translate(0 -222.259)" fill="#555"/>
    <path id="Path_135" data-name="Path 135" d="M16.753,112.074H.505c-.279,0-.505.389-.505.868s.226.868.505.868H16.753c.279,0,.505-.389.505-.868S17.032,112.074,16.753,112.074Zm0,0" transform="translate(0 -111.128)" fill="#555"/>
    <path id="Path_136" data-name="Path 136" d="M16.753-5.207H.505c-.279,0-.505.389-.505.868s.226.868.505.868H16.753c.279,0,.505-.389.505-.868S17.032-5.207,16.753-5.207Zm0,0" fill="#555"/>
  </g>
</svg>
