<svg xmlns="http://www.w3.org/2000/svg" width="30.035" height="30.035" viewBox="0 0 30.035 30.035">
  <path id="twitter" d="M15.017,0A15.017,15.017,0,1,0,30.035,15.017,15.019,15.019,0,0,0,15.017,0Zm6.857,11.709q.01.222.01.445a9.741,9.741,0,0,1-9.807,9.807h0a9.757,9.757,0,0,1-5.283-1.548,7.011,7.011,0,0,0,.822.048A6.916,6.916,0,0,0,11.9,18.985a3.451,3.451,0,0,1-3.22-2.394,3.435,3.435,0,0,0,1.557-.059,3.448,3.448,0,0,1-2.765-3.379c0-.016,0-.03,0-.044a3.423,3.423,0,0,0,1.561.431,3.45,3.45,0,0,1-1.067-4.6,9.786,9.786,0,0,0,7.1,3.6A3.449,3.449,0,0,1,20.941,9.4,6.914,6.914,0,0,0,23.13,8.56a3.46,3.46,0,0,1-1.516,1.906,6.874,6.874,0,0,0,1.979-.543A7,7,0,0,1,21.874,11.709Zm0,0" fill="#40a2ea"/>
</svg>
