<svg id="whatsapp_1_" data-name="whatsapp (1)" xmlns="http://www.w3.org/2000/svg" width="27.5" height="27.5" viewBox="0 0 27.5 27.5">
  <path id="Path_59" data-name="Path 59" d="M13.753,0h-.007A13.741,13.741,0,0,0,2.618,21.809L.9,26.917l5.285-1.69A13.748,13.748,0,1,0,13.753,0Z" fill="#4caf50"/>
  <path id="Path_60" data-name="Path 60" d="M123.257,130.216a3.88,3.88,0,0,1-2.7,1.94c-.718.153-1.657.275-4.816-1.035-4.041-1.674-6.643-5.78-6.846-6.047a7.853,7.853,0,0,1-1.633-4.147,4.39,4.39,0,0,1,1.406-3.346,2,2,0,0,1,1.406-.493c.17,0,.323.009.461.015.4.017.607.041.873.679.332.8,1.14,2.772,1.236,2.975a.818.818,0,0,1,.058.744,2.376,2.376,0,0,1-.445.631c-.2.234-.4.413-.6.663-.186.218-.4.452-.162.856a12.2,12.2,0,0,0,2.231,2.772,10.109,10.109,0,0,0,3.224,1.989.869.869,0,0,0,.969-.153A16.636,16.636,0,0,0,119,126.837a.767.767,0,0,1,.987-.3c.371.129,2.336,1.1,2.74,1.3s.67.3.768.469A3.424,3.424,0,0,1,123.257,130.216Z" transform="translate(-101.503 -110.799)" fill="#fafafa"/>
</svg>
