<svg id="schedule" xmlns="http://www.w3.org/2000/svg" width="30.279" height="32.44" viewBox="0 0 30.279 32.44">
  <g id="Group_22" data-name="Group 22">
    <path id="Path_15" data-name="Path 15" d="M31.579,362.725H19.222a2.163,2.163,0,0,1-2.163-2.163V358.4h16.6Z" transform="translate(-17.059 -335.692)" fill="#d3dcfb"/>
    <path id="Path_16" data-name="Path 16" d="M45.176,73.673V88.811H19.222a2.163,2.163,0,0,1-2.163-2.163V73.673L32.2,68.266Z" transform="translate(-17.059 -63.941)" fill="#ebf5fc"/>
    <g id="Group_15" data-name="Group 15" transform="translate(2.163 11.895)">
      <path id="Path_17" data-name="Path 17" d="M52.859,189.9H51.71a.507.507,0,0,1-.507-.507v-1.149a.507.507,0,0,1,.507-.507h1.149a.507.507,0,0,1,.507.507v1.149A.507.507,0,0,1,52.859,189.9Z" transform="translate(-51.203 -187.734)" fill="#3c58a0"/>
      <path id="Path_18" data-name="Path 18" d="M121.126,189.9h-1.149a.507.507,0,0,1-.507-.507v-1.149a.507.507,0,0,1,.507-.507h1.149a.507.507,0,0,1,.507.507v1.149A.507.507,0,0,1,121.126,189.9Z" transform="translate(-115.145 -187.734)" fill="#3c58a0"/>
      <path id="Path_19" data-name="Path 19" d="M189.392,189.9h-1.149a.507.507,0,0,1-.507-.507v-1.149a.507.507,0,0,1,.507-.507h1.149a.507.507,0,0,1,.507.507v1.149A.507.507,0,0,1,189.392,189.9Z" transform="translate(-179.085 -187.734)" fill="#3c58a0"/>
      <path id="Path_20" data-name="Path 20" d="M257.659,189.9H256.51a.507.507,0,0,1-.507-.507v-1.149a.507.507,0,0,1,.507-.507h1.149a.507.507,0,0,1,.507.507v1.149A.507.507,0,0,1,257.659,189.9Z" transform="translate(-243.027 -187.734)" fill="#3c58a0"/>
      <path id="Path_21" data-name="Path 21" d="M325.914,189.9h-1.149a.507.507,0,0,1-.507-.507v-1.149a.507.507,0,0,1,.507-.507h1.149a.507.507,0,0,1,.507.507v1.149A.507.507,0,0,1,325.914,189.9Z" transform="translate(-306.957 -187.734)" fill="#3c58a0"/>
      <path id="Path_22" data-name="Path 22" d="M394.181,189.9h-1.149a.507.507,0,0,1-.507-.507v-1.149a.507.507,0,0,1,.507-.507h1.149a.507.507,0,0,1,.507.507v1.149A.507.507,0,0,1,394.181,189.9Z" transform="translate(-370.899 -187.734)" fill="#3c58a0"/>
      <path id="Path_23" data-name="Path 23" d="M52.859,258.163H51.71a.507.507,0,0,1-.507-.507v-1.149A.507.507,0,0,1,51.71,256h1.149a.507.507,0,0,1,.507.507v1.149A.507.507,0,0,1,52.859,258.163Z" transform="translate(-51.203 -251.675)" fill="#3c58a0"/>
      <path id="Path_24" data-name="Path 24" d="M121.126,258.163h-1.149a.507.507,0,0,1-.507-.507v-1.149a.507.507,0,0,1,.507-.507h1.149a.507.507,0,0,1,.507.507v1.149A.507.507,0,0,1,121.126,258.163Z" transform="translate(-115.145 -251.675)" fill="#3c58a0"/>
      <path id="Path_25" data-name="Path 25" d="M189.392,258.163h-1.149a.507.507,0,0,1-.507-.507v-1.149a.507.507,0,0,1,.507-.507h1.149a.507.507,0,0,1,.507.507v1.149A.507.507,0,0,1,189.392,258.163Z" transform="translate(-179.085 -251.675)" fill="#3c58a0"/>
      <path id="Path_26" data-name="Path 26" d="M258.166,258.163v-1.622a.541.541,0,0,0-.541-.541h-1.081a.541.541,0,0,0-.541.541v1.081a.541.541,0,0,0,.541.541Z" transform="translate(-243.027 -251.675)" fill="#3c58a0"/>
      <path id="Path_27" data-name="Path 27" d="M52.859,326.43H51.71a.507.507,0,0,1-.507-.507v-1.149a.507.507,0,0,1,.507-.507h1.149a.507.507,0,0,1,.507.507v1.149A.507.507,0,0,1,52.859,326.43Z" transform="translate(-51.203 -315.616)" fill="#3c58a0"/>
      <path id="Path_28" data-name="Path 28" d="M121.126,326.43h-1.149a.507.507,0,0,1-.507-.507v-1.149a.507.507,0,0,1,.507-.507h1.149a.507.507,0,0,1,.507.507v1.149A.507.507,0,0,1,121.126,326.43Z" transform="translate(-115.145 -315.616)" fill="#3c58a0"/>
      <path id="Path_29" data-name="Path 29" d="M189.392,326.43h-1.149a.507.507,0,0,1-.507-.507v-1.149a.507.507,0,0,1,.507-.507h1.149a.507.507,0,0,1,.507.507v1.149A.507.507,0,0,1,189.392,326.43Z" transform="translate(-179.085 -315.616)" fill="#3c58a0"/>
    </g>
    <path id="Path_30" data-name="Path 30" d="M399.055,187.733h-1.118a.521.521,0,0,0-.191.037.522.522,0,0,1,.331.485v1.118a.522.522,0,0,1-.331.485.52.52,0,0,0,.191.037h1.118a.522.522,0,0,0,.522-.522v-1.118A.522.522,0,0,0,399.055,187.733Z" transform="translate(-373.625 -175.838)" fill="#2a428c"/>
    <path id="Path_31" data-name="Path 31" d="M330.788,187.733h-1.118a.521.521,0,0,0-.191.037.522.522,0,0,1,.331.485v1.118a.522.522,0,0,1-.331.485.52.52,0,0,0,.191.037h1.118a.522.522,0,0,0,.522-.522v-1.118A.522.522,0,0,0,330.788,187.733Z" transform="translate(-309.683 -175.838)" fill="#2a428c"/>
    <path id="Path_32" data-name="Path 32" d="M262.533,187.733h-1.118a.521.521,0,0,0-.191.037.522.522,0,0,1,.331.485v1.118a.522.522,0,0,1-.331.485.52.52,0,0,0,.191.037h1.118a.522.522,0,0,0,.522-.522v-1.118A.522.522,0,0,0,262.533,187.733Z" transform="translate(-245.753 -175.838)" fill="#2a428c"/>
    <path id="Path_33" data-name="Path 33" d="M194.266,187.733h-1.118a.521.521,0,0,0-.191.037.522.522,0,0,1,.331.485v1.118a.522.522,0,0,1-.331.485.52.52,0,0,0,.191.037h1.118a.522.522,0,0,0,.522-.522v-1.118A.522.522,0,0,0,194.266,187.733Z" transform="translate(-181.811 -175.838)" fill="#2a428c"/>
    <path id="Path_34" data-name="Path 34" d="M126,187.733H124.88a.521.521,0,0,0-.191.037.522.522,0,0,1,.331.485v1.118a.522.522,0,0,1-.331.485.52.52,0,0,0,.191.037H126a.522.522,0,0,0,.522-.522v-1.118A.522.522,0,0,0,126,187.733Z" transform="translate(-117.869 -175.838)" fill="#2a428c"/>
    <path id="Path_35" data-name="Path 35" d="M57.733,187.733H56.614a.521.521,0,0,0-.191.037.522.522,0,0,1,.331.485v1.118a.522.522,0,0,1-.331.485.52.52,0,0,0,.191.037h1.118a.522.522,0,0,0,.522-.522v-1.118A.522.522,0,0,0,57.733,187.733Z" transform="translate(-53.929 -175.838)" fill="#2a428c"/>
    <path id="Path_36" data-name="Path 36" d="M57.733,256H56.614a.521.521,0,0,0-.191.037.522.522,0,0,1,.331.485v1.118a.522.522,0,0,1-.331.485.52.52,0,0,0,.191.037h1.118a.522.522,0,0,0,.522-.522v-1.118A.522.522,0,0,0,57.733,256Z" transform="translate(-53.929 -239.78)" fill="#2a428c"/>
    <path id="Path_37" data-name="Path 37" d="M57.733,324.267H56.614a.521.521,0,0,0-.191.037.522.522,0,0,1,.331.485v1.118a.522.522,0,0,1-.331.485.52.52,0,0,0,.191.037h1.118a.522.522,0,0,0,.522-.522v-1.118A.522.522,0,0,0,57.733,324.267Z" transform="translate(-53.929 -303.721)" fill="#2a428c"/>
    <path id="Path_38" data-name="Path 38" d="M126,256H124.88a.521.521,0,0,0-.191.037.522.522,0,0,1,.331.485v1.118a.522.522,0,0,1-.331.485.52.52,0,0,0,.191.037H126a.522.522,0,0,0,.522-.522v-1.118A.522.522,0,0,0,126,256Z" transform="translate(-117.869 -239.78)" fill="#2a428c"/>
    <path id="Path_39" data-name="Path 39" d="M126,324.267H124.88a.521.521,0,0,0-.191.037.522.522,0,0,1,.331.485v1.118a.522.522,0,0,1-.331.485.52.52,0,0,0,.191.037H126a.522.522,0,0,0,.522-.522v-1.118A.522.522,0,0,0,126,324.267Z" transform="translate(-117.869 -303.721)" fill="#2a428c"/>
    <path id="Path_40" data-name="Path 40" d="M194.266,256h-1.118a.521.521,0,0,0-.191.037.522.522,0,0,1,.331.485v1.118a.522.522,0,0,1-.331.485.52.52,0,0,0,.191.037h1.118a.522.522,0,0,0,.522-.522v-1.118A.522.522,0,0,0,194.266,256Z" transform="translate(-181.811 -239.78)" fill="#2a428c"/>
    <path id="Path_41" data-name="Path 41" d="M263.054,258.163v-1.641a.522.522,0,0,0-.522-.522h-1.118a.521.521,0,0,0-.191.037.522.522,0,0,1,.331.485v1.118a.522.522,0,0,1-.331.485.52.52,0,0,0,.191.037h1.641Z" transform="translate(-245.752 -239.78)" fill="#2a428c"/>
    <path id="Path_42" data-name="Path 42" d="M194.266,324.267h-1.118a.521.521,0,0,0-.191.037.522.522,0,0,1,.331.485v1.118a.522.522,0,0,1-.331.485.52.52,0,0,0,.191.037h1.118a.522.522,0,0,0,.522-.522v-1.118A.522.522,0,0,0,194.266,324.267Z" transform="translate(-181.811 -303.721)" fill="#2a428c"/>
    <path id="Path_43" data-name="Path 43" d="M437.114,143.721v15.765h1.5V144.347Z" transform="translate(-410.499 -134.615)" fill="#d3dcfb"/>
    <path id="Path_44" data-name="Path 44" d="M45.176,41.7V36.3a2.163,2.163,0,0,0-2.163-2.163H19.222A2.163,2.163,0,0,0,17.059,36.3V41.7Z" transform="translate(-17.059 -31.971)" fill="#ff4155"/>
    <g id="Group_21" data-name="Group 21" transform="translate(4.917 3.836)">
      <g id="Group_20" data-name="Group 20">
        <g id="Group_16" data-name="Group 16">
          <path id="Path_45" data-name="Path 45" d="M96.563,61.52H95.156a.49.49,0,0,1,0-.979h1.408a.49.49,0,0,1,0,.979Z" transform="translate(-94.666 -60.541)" fill="#e80054"/>
        </g>
        <g id="Group_17" data-name="Group 17" transform="translate(3.458)">
          <path id="Path_46" data-name="Path 46" d="M151.145,61.52h-1.408a.49.49,0,0,1,0-.979h1.408a.49.49,0,0,1,0,.979Z" transform="translate(-149.248 -60.541)" fill="#e80054"/>
        </g>
        <g id="Group_18" data-name="Group 18" transform="translate(12.436)">
          <path id="Path_47" data-name="Path 47" d="M292.84,61.52h-1.408a.49.49,0,0,1,0-.979h1.408a.49.49,0,1,1,0,.979Z" transform="translate(-290.943 -60.541)" fill="#e80054"/>
        </g>
        <g id="Group_19" data-name="Group 19" transform="translate(15.894)">
          <path id="Path_48" data-name="Path 48" d="M347.423,61.52h-1.408a.49.49,0,0,1,0-.979h1.408a.49.49,0,1,1,0,.979Z" transform="translate(-345.526 -60.541)" fill="#e80054"/>
        </g>
      </g>
    </g>
    <path id="Path_49" data-name="Path 49" d="M122.162,4.055a1.352,1.352,0,1,1-2.7,0v-2.7a1.352,1.352,0,1,1,2.7,0v2.7Z" transform="translate(-112.971)" fill="#ebf5fc"/>
    <path id="Path_50" data-name="Path 50" d="M318.439,4.055a1.352,1.352,0,0,1-2.7,0v-2.7a1.352,1.352,0,1,1,2.7,0v2.7Z" transform="translate(-296.812)" fill="#ebf5fc"/>
    <path id="Path_51" data-name="Path 51" d="M325.983,0a1.345,1.345,0,0,0-.75.227,1.35,1.35,0,0,1,.6,1.124v2.7a1.35,1.35,0,0,1-.6,1.124,1.351,1.351,0,0,0,2.1-1.124v-2.7A1.352,1.352,0,0,0,325.983,0Z" transform="translate(-305.707)" fill="#d3dcfb"/>
    <path id="Path_52" data-name="Path 52" d="M129.7,0a1.345,1.345,0,0,0-.75.227,1.35,1.35,0,0,1,.6,1.124v2.7a1.35,1.35,0,0,1-.6,1.124,1.351,1.351,0,0,0,2.1-1.124v-2.7A1.352,1.352,0,0,0,129.7,0Z" transform="translate(-121.865)" fill="#d3dcfb"/>
    <path id="Path_53" data-name="Path 53" d="M404.492,34.133h-1.5a2.163,2.163,0,0,1,2.163,2.163V41.7h1.5V36.3a2.163,2.163,0,0,0-2.163-2.163Z" transform="translate(-378.537 -31.97)" fill="#e80054"/>
    <path id="Path_54" data-name="Path 54" d="M17.058,111.74H45.175v.979H17.058Z" transform="translate(-17.058 -104.66)" fill="#e80054"/>
  </g>
  <circle id="Ellipse_1" data-name="Ellipse 1" cx="8.11" cy="8.11" r="8.11" transform="translate(14.059 16.22)" fill="#4fabf7"/>
  <circle id="Ellipse_2" data-name="Ellipse 2" cx="5.947" cy="5.947" r="5.947" transform="translate(16.221 18.383)" fill="#ebf5fc"/>
  <g id="Group_24" data-name="Group 24" transform="translate(21.679 20.056)">
    <g id="Group_23" data-name="Group 23">
      <path id="Path_55" data-name="Path 55" d="M359.705,320.222a.489.489,0,0,1-.49-.49v-2.7a.49.49,0,0,1,.979,0v2.7A.49.49,0,0,1,359.705,320.222Z" transform="translate(-359.216 -316.54)" fill="#3c58a0"/>
    </g>
  </g>
  <g id="Group_26" data-name="Group 26" transform="translate(22.76 23.841)">
    <g id="Group_25" data-name="Group 25">
      <path id="Path_56" data-name="Path 56" d="M378.394,377.253h-1.622a.49.49,0,0,1,0-.979h1.622a.49.49,0,0,1,0,.979Z" transform="translate(-376.282 -376.274)" fill="#3c58a0"/>
    </g>
  </g>
  <path id="Path_57" data-name="Path 57" d="M355.845,256c-.253,0-.5.012-.751.035a8.11,8.11,0,0,1,0,16.15c.247.023.5.035.751.035a8.11,8.11,0,0,0,0-16.22Z" transform="translate(-333.676 -239.78)" fill="#1886ea"/>
  <path id="Path_58" data-name="Path 58" d="M355.853,290.133a6.013,6.013,0,0,0-.75.047,5.948,5.948,0,0,1,0,11.8,5.948,5.948,0,1,0,.75-11.848Z" transform="translate(-333.684 -271.75)" fill="#d3dcfb"/>
  <circle id="Ellipse_3" data-name="Ellipse 3" cx="1.081" cy="1.081" r="1.081" transform="translate(21.087 23.249)" fill="#ffdd40"/>
</svg>
